/* XPM */
static char *dc5e1e67622644f1a13bdd6e4776995eKBUe5sXxhCsZe7GE[] = {
/* columns rows colors chars-per-pixel */
"30 30 5 1 ",
"  c None",
". c #7092BE",
"X c #99D9EA",
"o c #BFE8F2",
"O c #CEEDF4",
/* pixels */
"     XXX   ........           ",
"     XXX ............    XXX  ",
"     XXX....OOOOOO.....  XXX  ",
"XXX  ....OOOXXXXXXOOO....XXX  ",
"XXX ....OXXXXXXXXXXXXOO...    ",
"XXX...OOXXXXXooooooXXXOO...   ",
"   ..OOXXXXooooooooXXXXOO..   ",
"  ...OXXXXoooooooXXXXXXXO...  ",
"  ..OXXXXoooooooXXXXXXXXXO... ",
" ..OXXXXooooooooooXXXXXXXXO.. ",
" ..OXXXooooooooXXXXXXXXXXXO.. ",
"...OXXooooooXXXXXXXXXXXXXXO...",
"..OXXXooooooXXXXXXXXXXXXXXXO..",
"..OXXXooooooXXXXXXXXXXXXXXXO..",
"..OXXooooooXXXXXXXXXXXXXXXXO..",
"..OXXoooooXXXXXXXXXXXXXXXXXO..",
"..OXXoooooooXXXXXXXXXXXXXXXO..",
"..OXXoooXXXXXXXXXXXXXXXXXXXO..",
"...OXXoooXXXXXXXXXXXXXXXXXO...",
" ..OXXXoooXXXXXXXXXXXXXXXXO.. ",
" ..OXXXooooXXXXXXXXXXXXXXXO.. ",
"  ..OXXXooooXXXXXXXXXXXXXO... ",
"  ..OOXXXoooooXXXXXXXXXXO..XXX",
"   ..OOXXXooooXXXXXXXXXXO..XXX",
"   ...OOXXXXXXXXXXXXXXOO...XXX",
"    ....OXXXXXXXXXXXXO....    ",
"  XXX....OOOXXXXXXOOO..XXX    ",
"  XXX  .....OOOOOO.....XXX    ",
"  XXX   .............. XXX    ",
"           ........           "
};
